<?xml version="1.0" encoding="UTF-8" standalone="no"?>
<!-- Created with Inkscape (http://www.inkscape.org/) -->

<svg
   width="500.10001"
   height="500.10001"
   viewBox="0 0 132.31813 132.31812"
   version="1.1"
   id="svg9788"
   inkscape:export-filename="C:\Users\nqrz\Pictures\logo-fill.png"
   inkscape:export-xdpi="96"
   inkscape:export-ydpi="96"
   inkscape:version="1.1.1 (3bf5ae0d25, 2021-09-20)"
   sodipodi:docname="logo-aqua.svg"
   xmlns:inkscape="http://www.inkscape.org/namespaces/inkscape"
   xmlns:sodipodi="http://sodipodi.sourceforge.net/DTD/sodipodi-0.dtd"
   xmlns="http://www.w3.org/2000/svg"
   xmlns:svg="http://www.w3.org/2000/svg">
  <sodipodi:namedview
     id="namedview9790"
     pagecolor="#ffffff"
     bordercolor="#999999"
     borderopacity="1"
     inkscape:pageshadow="0"
     inkscape:pageopacity="0"
     inkscape:pagecheckerboard="0"
     inkscape:document-units="px"
     showgrid="false"
     inkscape:zoom="0.64052329"
     inkscape:cx="110.06626"
     inkscape:cy="199.05599"
     inkscape:window-width="1920"
     inkscape:window-height="1129"
     inkscape:window-x="-8"
     inkscape:window-y="-8"
     inkscape:window-maximized="1"
     inkscape:current-layer="layer1"
     units="px" />
  <defs
     id="defs9785" />
  <g
     inkscape:label="Layer 1"
     inkscape:groupmode="layer"
     id="layer1"
     transform="translate(-194.46355,-109.54012)">
    <g
       id="g1245">
      <circle
         style="fill:#dddddd;fill-opacity:1;stroke-width:3.43957;stroke-opacity:0.638554"
         id="path1089"
         cx="-175.68596"
         cy="260.60938"
         transform="rotate(-90)"
         r="62.838543" />
      <path
         id="rect4180-2"
         style="fill:#222831;fill-opacity:1;stroke:none;stroke-width:0.399859;stroke-opacity:0.638554"
         d="m 260.62236,109.54013 a 66.15925,66.158995 0 0 0 -24.83537,4.86374 l 57.2916,108.87624 -9.49042,-109.04713 h 1.49515 a 66.15925,66.158995 0 0 0 -0.0584,-0.0229 h -1.43673 v -0.55161 a 66.15925,66.158995 0 0 0 -22.96582,-4.11835 z m 39.2543,12.9096 7.35065,100.14244 a 66.15925,66.158995 0 0 0 19.55437,-46.893 66.15925,66.158995 0 0 0 -26.90502,-53.24944 z m -87.33736,7.83506 a 66.15925,66.158995 0 0 0 -18.07575,45.41438 66.15925,66.158995 0 0 0 25.22289,51.95636 z m 14.84152,0.61296 8.25378,106.03053 a 66.15925,66.158995 0 0 0 24.98776,4.92997 66.15925,66.158995 0 0 0 23.35043,-4.28633 v -9.5e-4 H 283.576 Z" />
    </g>
  </g>
</svg>
