<?xml version="1.0" encoding="UTF-8" standalone="no"?>
<svg
   width="52"
   height="52"
   viewBox="0 0 52 52"
   version="1.1"
   id="svg6"
   sodipodi:docname="Laravel.svg"
   inkscape:version="1.1.1 (3bf5ae0d25, 2021-09-20)"
   xmlns:inkscape="http://www.inkscape.org/namespaces/inkscape"
   xmlns:sodipodi="http://sodipodi.sourceforge.net/DTD/sodipodi-0.dtd"
   xmlns="http://www.w3.org/2000/svg"
   xmlns:svg="http://www.w3.org/2000/svg"
   xmlns:rdf="http://www.w3.org/1999/02/22-rdf-syntax-ns#"
   xmlns:cc="http://creativecommons.org/ns#"
   xmlns:dc="http://purl.org/dc/elements/1.1/">
  <defs
     id="defs10" />
  <sodipodi:namedview
     id="namedview8"
     pagecolor="#ffffff"
     bordercolor="#999999"
     borderopacity="1"
     inkscape:pageshadow="0"
     inkscape:pageopacity="0"
     inkscape:pagecheckerboard="0"
     showgrid="false"
     inkscape:zoom="13.826923"
     inkscape:cx="24.987483"
     inkscape:cy="26"
     inkscape:window-width="1920"
     inkscape:window-height="1129"
     inkscape:window-x="-8"
     inkscape:window-y="-8"
     inkscape:window-maximized="1"
     inkscape:current-layer="svg6" />
  <title
     id="title2">Logomark</title>
  <path
     d="m 51.227673,11.763891 a 0.82298422,0.82298422 0 0 1 0.02848,0.212613 v 11.16166 a 0.81382865,0.81382865 0 0 1 -0.408949,0.705996 l -9.368185,5.393649 v 10.690657 c 0,0.290944 -0.154628,0.559507 -0.406914,0.705996 L 21.516823,51.891747 c -0.04476,0.02543 -0.09359,0.04171 -0.14242,0.059 -0.01831,0.0061 -0.03561,0.01729 -0.05493,0.02238 a 0.81891508,0.81891508 0 0 1 -0.417087,0 c -0.02238,-0.0061 -0.04273,-0.01831 -0.06409,-0.02645 -0.04476,-0.01628 -0.09156,-0.03052 -0.134282,-0.05493 L 1.1527959,40.634462 A 0.81484594,0.81484594 0 0 1 0.743847,39.928466 V 6.4434861 c 0,-0.073245 0.0101729,-0.1444546 0.028484,-0.21363 0.006104,-0.023398 0.0203457,-0.044761 0.028484,-0.068158 0.0152593,-0.042726 0.0295013,-0.086469 0.0518816,-0.1261435 0.0152593,-0.026449 0.0376396,-0.047812 0.0559507,-0.072227 0.0233976,-0.032553 0.0447606,-0.066124 0.0722273,-0.094608 0.0233976,-0.023398 0.0539161,-0.040691 0.0803656,-0.061037 0.029501,-0.024415 0.055951,-0.050864 0.089521,-0.070193 h 0.00102 L 10.927895,0.10884736 a 0.81586322,0.81586322 0 0 1 0.813829,0 l 9.776117,5.62864244 h 0.002 c 0.03255,0.020346 0.06002,0.045778 0.08952,0.069175 0.02645,0.020346 0.05595,0.038657 0.07935,0.061037 0.02848,0.029501 0.04883,0.063072 0.07324,0.095625 0.01729,0.024415 0.04069,0.045778 0.05493,0.072227 0.0234,0.040691 0.03662,0.083417 0.0529,0.1261435 0.0081,0.023397 0.02238,0.04476 0.02848,0.069175 a 0.82298422,0.82298422 0 0 1 0.02848,0.2126127 v 20.91438 L 30.073214,22.66716 V 11.975486 c 0,-0.07121 0.01017,-0.143437 0.02848,-0.211595 0.0071,-0.02441 0.02035,-0.04578 0.02848,-0.06918 0.01628,-0.04273 0.03052,-0.08647 0.0529,-0.126143 0.01526,-0.02645 0.03764,-0.04781 0.05493,-0.07223 0.02441,-0.03255 0.04476,-0.06612 0.07324,-0.09461 0.0234,-0.0234 0.0529,-0.04069 0.07935,-0.06104 0.03052,-0.02441 0.05697,-0.05086 0.08952,-0.07019 h 0.001 l 9.777134,-5.6286421 a 0.81484594,0.81484594 0 0 1 0.813829,0 l 9.776116,5.6286421 c 0.03459,0.02035 0.06104,0.04578 0.09156,0.06918 0.02543,0.02034 0.05493,0.03866 0.07833,0.06104 0.02848,0.0295 0.04883,0.06307 0.07325,0.09563 0.01831,0.02441 0.04069,0.04578 0.05493,0.07223 0.0234,0.03967 0.03662,0.08342 0.0529,0.126143 0.0092,0.0234 0.02238,0.04476 0.02848,0.06918 z M 49.626465,22.66716 v -9.281715 l -3.421132,1.969465 -4.72631,2.721239 v 9.281716 l 8.148459,-4.690705 z m -9.776117,16.790303 v -9.28782 l -4.648996,2.655116 -13.27558,7.576745 V 49.77681 Z M 2.3735389,7.852427 V 39.457463 L 20.29608,49.775793 v -9.373272 l -9.363098,-5.299042 -0.0031,-0.002 -0.0041,-0.002 c -0.03154,-0.01831 -0.05799,-0.04476 -0.08749,-0.06714 -0.02543,-0.02034 -0.05493,-0.03662 -0.07731,-0.059 l -0.002,-0.0031 c -0.02645,-0.02543 -0.04476,-0.05697 -0.06714,-0.08545 -0.02035,-0.02747 -0.04476,-0.05086 -0.06104,-0.07935 l -0.001,-0.0031 c -0.01831,-0.03052 -0.0295,-0.06714 -0.04273,-0.101729 -0.01323,-0.03052 -0.03052,-0.059 -0.03866,-0.09156 v -0.001 c -0.01017,-0.03866 -0.01221,-0.07935 -0.01628,-0.119022 -0.0041,-0.03052 -0.01221,-0.06104 -0.01221,-0.09156 v -0.002 -21.852316 L 5.7946711,9.820875 2.3735389,7.8534443 Z M 11.335827,1.7548158 3.1904194,6.4434861 11.333792,11.132156 19.478183,6.4424688 11.333792,1.7548158 Z m 4.235978,29.2612092 4.725293,-2.720222 V 7.852427 l -3.421133,1.9694653 -4.726309,2.7212397 v 20.443376 z m 25.093389,-23.7281917 -8.14439,4.6886707 8.14439,4.68867 8.143373,-4.689688 z M 39.850348,18.076149 35.124038,15.35491 31.702906,13.385445 v 9.281715 l 4.725293,2.720223 3.422149,1.970482 z m -18.740439,20.916414 11.945987,-6.819884 5.971468,-3.407908 -8.138286,-4.685618 -9.37022,5.394667 -8.540115,4.916542 z"
     fill="#ff2d20"
     fill-rule="evenodd"
     id="path4"
     style="stroke-width:1.01729" />
  <metadata
     id="metadata827">
    <rdf:RDF>
      <cc:Work
         rdf:about="">
        <dc:title>Logomark</dc:title>
      </cc:Work>
    </rdf:RDF>
  </metadata>
</svg>
