<?xml version="1.0" encoding="UTF-8" standalone="no"?>
<!-- Generator: Adobe Illustrator 23.0.2, SVG Export Plug-In . SVG Version: 6.00 Build 0)  -->

<svg
   version="1.1"
   id="Layer_1"
   x="0px"
   y="0px"
   viewBox="0 0 120 120"
   xml:space="preserve"
   sodipodi:docname="svelte.svg"
   width="120"
   height="120"
   inkscape:version="1.1.1 (3bf5ae0d25, 2021-09-20)"
   xmlns:inkscape="http://www.inkscape.org/namespaces/inkscape"
   xmlns:sodipodi="http://sodipodi.sourceforge.net/DTD/sodipodi-0.dtd"
   xmlns="http://www.w3.org/2000/svg"
   xmlns:svg="http://www.w3.org/2000/svg"><defs
   id="defs11" /><sodipodi:namedview
   id="namedview9"
   pagecolor="#ffffff"
   bordercolor="#999999"
   borderopacity="1"
   inkscape:pageshadow="0"
   inkscape:pageopacity="0"
   inkscape:pagecheckerboard="0"
   showgrid="false"
   inkscape:zoom="6.0932203"
   inkscape:cx="48.988873"
   inkscape:cy="59"
   inkscape:window-width="1920"
   inkscape:window-height="1129"
   inkscape:window-x="-8"
   inkscape:window-y="-8"
   inkscape:window-maximized="1"
   inkscape:current-layer="Layer_1" />
<style
   type="text/css"
   id="style2">
	.st0{fill:#FF3E00;}
	.st1{fill:#FFFFFF;}
</style>
<path
   class="st0"
   d="M 103.48889,15.874569 C 92.4067,-0.08785641 70.343984,-4.7647454 54.48323,5.3007331 L 26.523568,23.194917 c -7.625363,4.778561 -12.912281,12.607266 -14.437354,21.452687 -1.321729,7.422019 -0.203343,15.047382 3.35516,21.656029 -2.440116,3.660174 -4.06686,7.727034 -4.778561,11.997237 -1.6267435,9.048764 0.508358,18.402542 5.795276,25.82456 11.183865,15.96243 33.144909,20.63932 49.005663,10.57384 L 93.423415,96.906755 c 7.625365,-4.778561 12.912275,-12.607266 14.437355,-21.452687 1.32173,-7.422019 0.20334,-15.047382 -3.35516,-21.656029 2.44011,-3.660174 4.06686,-7.727034 4.77856,-11.997237 1.72842,-9.150435 -0.40669,-18.504213 -5.79528,-25.926233"
   id="path4"
   style="stroke-width:1.01672" />
<path
   class="st1"
   d="m 51.9,103.91359 c -8.9,2.3 -18.2,-1.2 -23.4,-8.700002 -3.2,-4.4 -4.4,-9.9 -3.5,-15.3 0.2,-0.9 0.4,-1.7 0.6,-2.6 l 0.5,-1.6 1.4,1 c 3.3,2.4 6.9,4.2 10.8,5.4 l 1,0.3 -0.1,1 c -0.1,1.4 0.3,2.9 1.1,4.1 1.6,2.3 4.4,3.4 7.1,2.7 0.6,-0.2 1.2,-0.4 1.7,-0.7 l 27.4,-17.5 c 1.4,-0.9 2.3,-2.2 2.6,-3.8 0.3,-1.6 -0.1,-3.3 -1,-4.6 -1.6,-2.3 -4.4,-3.3 -7.1,-2.6 -0.6,0.2 -1.2,0.4 -1.7,0.7 l -10.5,6.7 c -1.7,1.1 -3.6,1.9 -5.6,2.4 -8.9,2.3 -18.2,-1.2 -23.4,-8.7 -3.1,-4.4 -4.4,-9.9 -3.4,-15.3 0.9,-5.2 4.1,-9.9 8.6,-12.7 l 27.5,-17.5 c 1.7,-1.1 3.6,-1.9 5.6,-2.5 8.9,-2.3 18.2,1.2 23.4,8.7 3.2,4.4 4.4,9.9 3.5,15.3 -0.2,0.9 -0.4,1.7 -0.7,2.6 l -0.5,1.6 -1.4,-1 c -3.3,-2.4 -6.9,-4.2 -10.8,-5.4 l -1,-0.3 0.1,-1 c 0.1,-1.4 -0.3,-2.9 -1.1,-4.1 -1.6,-2.3 -4.4,-3.3 -7.1,-2.6 -0.6,0.2 -1.2,0.4 -1.7,0.7 l -27.4,17.5 c -1.4,0.9 -2.3,2.2 -2.6,3.8 -0.3,1.6 0.1,3.3 1,4.6 1.6,2.3 4.4,3.3 7.1,2.6 0.6,-0.2 1.2,-0.4 1.7,-0.7 l 10.5,-6.7 c 1.7,-1.1 3.6,-1.9 5.6,-2.5 8.9,-2.3 18.2,1.2 23.4,8.7 3.2,4.4 4.4,9.9 3.5,15.3 -0.9,5.2 -4.1,9.9 -8.6,12.7 L 57.5,101.41359 c -1.7,1.1 -3.6,1.9 -5.6,2.5"
   id="path6" />
</svg>
