<?xml version="1.0" encoding="UTF-8" standalone="no"?>
<svg
   fill="none"
   viewBox="0 0 54 54"
   version="1.1"
   id="svg11"
   sodipodi:docname="tailwindcss.svg"
   width="54"
   height="54"
   inkscape:version="1.1.1 (3bf5ae0d25, 2021-09-20)"
   xmlns:inkscape="http://www.inkscape.org/namespaces/inkscape"
   xmlns:sodipodi="http://sodipodi.sourceforge.net/DTD/sodipodi-0.dtd"
   xmlns="http://www.w3.org/2000/svg"
   xmlns:svg="http://www.w3.org/2000/svg">
  <sodipodi:namedview
     id="namedview13"
     pagecolor="#ffffff"
     bordercolor="#999999"
     borderopacity="1"
     inkscape:pageshadow="0"
     inkscape:pageopacity="0"
     inkscape:pagecheckerboard="0"
     showgrid="false"
     height="54px"
     inkscape:zoom="20.407407"
     inkscape:cx="27.024501"
     inkscape:cy="16.489111"
     inkscape:window-width="1920"
     inkscape:window-height="1129"
     inkscape:window-x="-8"
     inkscape:window-y="-8"
     inkscape:window-maximized="1"
     inkscape:current-layer="svg11" />
  <g
     clip-path="url(#prefix__clip0)"
     id="g4"
     transform="translate(0,10.8)">
    <path
       fill="#38bdf8"
       fill-rule="evenodd"
       d="M 27,0 C 19.8,0 15.3,3.6 13.5,10.8 16.2,7.2 19.35,5.85 22.95,6.75 25.004,7.263 26.472,8.754 28.097,10.403 30.744,13.09 33.808,16.2 40.5,16.2 47.7,16.2 52.2,12.6 54,5.4 51.3,9 48.15,10.35 44.55,9.45 42.496,8.937 41.028,7.446 39.403,5.797 36.756,3.11 33.692,0 27,0 Z M 13.5,16.2 C 6.3,16.2 1.8,19.8 0,27 c 2.7,-3.6 5.85,-4.95 9.45,-4.05 2.054,0.514 3.522,2.004 5.147,3.653 2.647,2.687 5.711,5.797 12.403,5.797 7.2,0 11.7,-3.6 13.5,-10.8 -2.7,3.6 -5.85,4.95 -9.45,4.05 C 28.996,25.137 27.528,23.646 25.903,21.997 23.256,19.31 20.192,16.2 13.5,16.2 Z"
       clip-rule="evenodd"
       id="path2" />
  </g>
  <defs
     id="defs9">
    <clipPath
       id="prefix__clip0">
      <path
         fill="#ffffff"
         d="M 0,0 H 54 V 32.4 H 0 Z"
         id="path6" />
    </clipPath>
  </defs>
</svg>
